<svg xmlns="http://www.w3.org/2000/svg" viewBox="0 0 1000 640" font-family="'Maple Mono', ui-monospace, SFMono-Regular, Menlo, monospace" role="img"><defs><marker id="ah" viewBox="0 0 10 10" refX="9" refY="5" markerWidth="7" markerHeight="7" orient="auto-start-reverse"><path d="M 0 0 L 10 5 L 0 10 z" fill="#45475a"/></marker><marker id="ahb" viewBox="0 0 10 10" refX="9" refY="5" markerWidth="7" markerHeight="7" orient="auto-start-reverse"><path d="M 0 0 L 10 5 L 0 10 z" fill="#89b4fa"/></marker></defs><rect x="0" y="0" width="1000" height="640" rx="10" fill="#1e1e2e"/>
<text x="40" y="40" font-size="11.5" font-weight="bold" letter-spacing="0.5" fill="#89b4fa">THE INFORMATION TREE — read the chain, then search the leaf</text>
<rect x="390" y="66" width="220" height="72" rx="8" fill="#26314a" stroke="#89b4fa" stroke-width="1.2"/>
<text x="402" y="88" font-size="12" font-weight="bold" fill="#89b4fa">1 · company-onboarding</text>
<text x="402" y="106" font-size="10.5" fill="#9399b2">Confluence · 'Start Here'</text>
<text x="402" y="122" font-size="10.5" fill="#9399b2">how we work · vocabulary</text>
<rect x="140" y="210" width="190" height="72" rx="8" fill="#26314a" stroke="#89b4fa" stroke-width="1.2"/>
<text x="152" y="232" font-size="12" font-weight="bold" fill="#89b4fa">2 · metrics</text>
<text x="152" y="250" font-size="10.5" fill="#9399b2">Confluence · metrics deck</text>
<text x="152" y="266" font-size="10.5" fill="#9399b2">how we define metrics</text>
<rect x="430" y="210" width="190" height="72" rx="8" fill="#313244" stroke="#45475a" stroke-width="1.2"/>
<text x="442" y="232" font-size="12" font-weight="bold" fill="#585b70">data-platform</text>
<text x="442" y="250" font-size="10.5" fill="#585b70">Confluence space</text>
<text x="442" y="266" font-size="10.5" fill="#585b70">infra · pipelines</text>
<rect x="680" y="210" width="180" height="72" rx="8" fill="#313244" stroke="#45475a" stroke-width="1.2"/>
<text x="692" y="232" font-size="12" font-weight="bold" fill="#585b70">support</text>
<text x="692" y="250" font-size="10.5" fill="#585b70">help-center kb</text>
<text x="692" y="266" font-size="10.5" fill="#585b70">tickets · macros</text>
<rect x="60" y="350" width="210" height="72" rx="8" fill="#26314a" stroke="#89b4fa" stroke-width="1.2"/>
<text x="72" y="372" font-size="12" font-weight="bold" fill="#89b4fa">3 · metrics-glossary</text>
<text x="72" y="390" font-size="10.5" fill="#9399b2">glossary · cohort vs segment</text>
<text x="72" y="406" font-size="10.5" fill="#9399b2">MRR vs bookings</text>
<rect x="300" y="350" width="180" height="72" rx="8" fill="#313244" stroke="#45475a" stroke-width="1.2"/>
<text x="312" y="372" font-size="12" font-weight="bold" fill="#585b70">experimentation</text>
<text x="312" y="390" font-size="10.5" fill="#585b70">runbook wiki</text>
<rect x="40" y="470" width="330" height="120" rx="8" fill="#26314a" stroke="#89b4fa" stroke-width="1.2"/>
<text x="52" y="492" font-size="12" font-weight="bold" fill="#89b4fa">4 · SOURCE CARD — historical-performance</text>
<text x="52" y="510" font-size="10.5" fill="#9399b2">the searchable thing: Confluence space</text>
<text x="52" y="526" font-size="10.5" fill="#9399b2">how: /search API · semantic works</text>
<text x="52" y="542" font-size="10.5" fill="#9399b2">example: 'Q2 churn by segment' → T-88</text>
<text x="52" y="558" font-size="10.5" fill="#9399b2">health: helpful 12 · probe ✓ 9/1</text>
<path d="M 500 138 L 235 210" fill="none" stroke="#89b4fa" stroke-width="2" marker-end="url(#ahb)"/>
<path d="M 235 282 L 165 350" fill="none" stroke="#89b4fa" stroke-width="2" marker-end="url(#ahb)"/>
<path d="M 165 422 L 205 470" fill="none" stroke="#89b4fa" stroke-width="2" marker-end="url(#ahb)"/>
<path d="M 500 138 L 525 210" fill="none" stroke="#45475a" stroke-width="1.4" marker-end="url(#ah)"/>
<path d="M 500 138 L 770 210" fill="none" stroke="#45475a" stroke-width="1.4" marker-end="url(#ah)"/>
<path d="M 235 282 L 390 350" fill="none" stroke="#45475a" stroke-width="1.4" marker-end="url(#ah)"/>
<text x="560" y="490" font-size="11.5" font-weight="bold" letter-spacing="0.5" fill="#89b4fa">WHERE_CAN_I_FIND() EMITS</text>
<text x="560" y="510" font-size="10.5" fill="#9399b2">the resolved path, root-first:</text>
<text x="560" y="526" font-size="10.5" fill="#9399b2">1 → 2 → 3, then the card at 4</text>
<text x="560" y="542" font-size="10.5" fill="#9399b2">'read if you're new' = steps 1–3 —</text>
<text x="560" y="558" font-size="10.5" fill="#9399b2">always and first · prompt-cached</text></svg>